<mxfile host="app.diagrams.net" agent="Mozilla/5.0 (Windows NT 10.0; Win64; x64) AppleWebKit/537.36 (KHTML, like Gecko) Chrome/129.0.0.0 Safari/537.36" version="24.7.17">
  <diagram name="Página-1" id="BSDWie1_UYHDNWIyru4i">
    <mxGraphModel dx="2100" dy="1044" grid="1" gridSize="10" guides="1" tooltips="1" connect="1" arrows="1" fold="1" page="1" pageScale="1" pageWidth="827" pageHeight="1169" math="0" shadow="0">
      <root>
        <mxCell id="0" />
        <mxCell id="1" parent="0" />
        <mxCell id="B93UWl0CvKrZpPo9y_b7-4" value="" style="edgeStyle=orthogonalEdgeStyle;rounded=0;orthogonalLoop=1;jettySize=auto;html=1;" edge="1" parent="1" source="B93UWl0CvKrZpPo9y_b7-1" target="B93UWl0CvKrZpPo9y_b7-3">
          <mxGeometry relative="1" as="geometry" />
        </mxCell>
        <mxCell id="B93UWl0CvKrZpPo9y_b7-1" value="" style="shape=datastore;whiteSpace=wrap;html=1;" vertex="1" parent="1">
          <mxGeometry x="344" y="40" width="60" height="60" as="geometry" />
        </mxCell>
        <mxCell id="B93UWl0CvKrZpPo9y_b7-10" value="" style="edgeStyle=orthogonalEdgeStyle;rounded=0;orthogonalLoop=1;jettySize=auto;html=1;entryX=0.25;entryY=0;entryDx=0;entryDy=0;" edge="1" parent="1" source="B93UWl0CvKrZpPo9y_b7-3" target="B93UWl0CvKrZpPo9y_b7-7">
          <mxGeometry relative="1" as="geometry">
            <Array as="points">
              <mxPoint x="326" y="380" />
            </Array>
          </mxGeometry>
        </mxCell>
        <mxCell id="B93UWl0CvKrZpPo9y_b7-16" value="" style="edgeStyle=orthogonalEdgeStyle;rounded=0;orthogonalLoop=1;jettySize=auto;html=1;" edge="1" parent="1" source="B93UWl0CvKrZpPo9y_b7-3">
          <mxGeometry relative="1" as="geometry">
            <mxPoint x="614" y="245" as="targetPoint" />
          </mxGeometry>
        </mxCell>
        <mxCell id="B93UWl0CvKrZpPo9y_b7-3" value="Front-End" style="whiteSpace=wrap;html=1;aspect=fixed;" vertex="1" parent="1">
          <mxGeometry x="269" y="140" width="210" height="210" as="geometry" />
        </mxCell>
        <mxCell id="B93UWl0CvKrZpPo9y_b7-5" value="" style="shape=image;verticalLabelPosition=bottom;labelBackgroundColor=default;verticalAlign=top;aspect=fixed;imageAspect=0;image=https://upload.wikimedia.org/wikipedia/commons/thumb/c/cf/Angular_full_color_logo.svg/1200px-Angular_full_color_logo.svg.png;" vertex="1" parent="1">
          <mxGeometry x="353.99" y="250" width="40" height="40" as="geometry" />
        </mxCell>
        <mxCell id="B93UWl0CvKrZpPo9y_b7-12" value="" style="edgeStyle=orthogonalEdgeStyle;rounded=0;orthogonalLoop=1;jettySize=auto;html=1;entryX=0.75;entryY=1;entryDx=0;entryDy=0;" edge="1" parent="1" source="B93UWl0CvKrZpPo9y_b7-7" target="B93UWl0CvKrZpPo9y_b7-3">
          <mxGeometry relative="1" as="geometry">
            <mxPoint x="374" y="420" as="targetPoint" />
            <Array as="points">
              <mxPoint x="427" y="450" />
              <mxPoint x="427" y="450" />
            </Array>
          </mxGeometry>
        </mxCell>
        <mxCell id="B93UWl0CvKrZpPo9y_b7-30" style="edgeStyle=orthogonalEdgeStyle;rounded=0;orthogonalLoop=1;jettySize=auto;html=1;exitX=0.5;exitY=1;exitDx=0;exitDy=0;" edge="1" parent="1" source="B93UWl0CvKrZpPo9y_b7-7" target="B93UWl0CvKrZpPo9y_b7-26">
          <mxGeometry relative="1" as="geometry" />
        </mxCell>
        <mxCell id="B93UWl0CvKrZpPo9y_b7-31" style="edgeStyle=orthogonalEdgeStyle;rounded=0;orthogonalLoop=1;jettySize=auto;html=1;exitX=0.5;exitY=1;exitDx=0;exitDy=0;" edge="1" parent="1" source="B93UWl0CvKrZpPo9y_b7-7" target="B93UWl0CvKrZpPo9y_b7-27">
          <mxGeometry relative="1" as="geometry" />
        </mxCell>
        <mxCell id="B93UWl0CvKrZpPo9y_b7-7" value="Controle da Aplicação" style="whiteSpace=wrap;html=1;aspect=fixed;" vertex="1" parent="1">
          <mxGeometry x="273" y="410" width="210" height="210" as="geometry" />
        </mxCell>
        <mxCell id="B93UWl0CvKrZpPo9y_b7-9" value="" style="shape=image;verticalLabelPosition=bottom;labelBackgroundColor=default;verticalAlign=top;aspect=fixed;imageAspect=0;image=https://upload.wikimedia.org/wikipedia/en/thumb/3/30/Java_programming_language_logo.svg/800px-Java_programming_language_logo.svg.png;" vertex="1" parent="1">
          <mxGeometry x="360.37" y="520" width="27.25" height="50" as="geometry" />
        </mxCell>
        <mxCell id="B93UWl0CvKrZpPo9y_b7-13" value="" style="shape=datastore;whiteSpace=wrap;html=1;" vertex="1" parent="1">
          <mxGeometry x="284" y="360" width="30" height="30" as="geometry" />
        </mxCell>
        <mxCell id="B93UWl0CvKrZpPo9y_b7-14" value="" style="shape=datastore;whiteSpace=wrap;html=1;" vertex="1" parent="1">
          <mxGeometry x="444" y="360" width="30" height="30" as="geometry" />
        </mxCell>
        <mxCell id="B93UWl0CvKrZpPo9y_b7-17" value="" style="shape=datastore;whiteSpace=wrap;html=1;" vertex="1" parent="1">
          <mxGeometry x="634" y="230" width="30" height="30" as="geometry" />
        </mxCell>
        <mxCell id="B93UWl0CvKrZpPo9y_b7-19" value="Dados formatados" style="text;html=1;align=center;verticalAlign=middle;whiteSpace=wrap;rounded=0;" vertex="1" parent="1">
          <mxGeometry x="213" y="360" width="60" height="30" as="geometry" />
        </mxCell>
        <mxCell id="B93UWl0CvKrZpPo9y_b7-20" value="Saida" style="text;html=1;align=center;verticalAlign=middle;whiteSpace=wrap;rounded=0;" vertex="1" parent="1">
          <mxGeometry x="474" y="360" width="60" height="30" as="geometry" />
        </mxCell>
        <mxCell id="B93UWl0CvKrZpPo9y_b7-21" value="Exibir Saída" style="text;html=1;align=center;verticalAlign=middle;whiteSpace=wrap;rounded=0;" vertex="1" parent="1">
          <mxGeometry x="674" y="230" width="60" height="30" as="geometry" />
        </mxCell>
        <mxCell id="B93UWl0CvKrZpPo9y_b7-25" value="" style="sketch=0;pointerEvents=1;shadow=0;dashed=0;html=1;strokeColor=none;fillColor=#505050;labelPosition=center;verticalLabelPosition=bottom;verticalAlign=top;outlineConnect=0;align=center;shape=mxgraph.office.concepts.clock;" vertex="1" parent="1">
          <mxGeometry x="454" y="235" width="20" height="20" as="geometry" />
        </mxCell>
        <mxCell id="B93UWl0CvKrZpPo9y_b7-32" style="edgeStyle=orthogonalEdgeStyle;rounded=0;orthogonalLoop=1;jettySize=auto;html=1;exitX=0.5;exitY=0;exitDx=0;exitDy=0;entryX=0.5;entryY=1;entryDx=0;entryDy=0;" edge="1" parent="1" source="B93UWl0CvKrZpPo9y_b7-26" target="B93UWl0CvKrZpPo9y_b7-7">
          <mxGeometry relative="1" as="geometry" />
        </mxCell>
        <mxCell id="B93UWl0CvKrZpPo9y_b7-53" style="edgeStyle=orthogonalEdgeStyle;rounded=0;orthogonalLoop=1;jettySize=auto;html=1;entryX=0.5;entryY=0;entryDx=0;entryDy=0;" edge="1" parent="1" source="B93UWl0CvKrZpPo9y_b7-26" target="B93UWl0CvKrZpPo9y_b7-52">
          <mxGeometry relative="1" as="geometry" />
        </mxCell>
        <mxCell id="B93UWl0CvKrZpPo9y_b7-26" value="API GMAPS" style="whiteSpace=wrap;html=1;aspect=fixed;" vertex="1" parent="1">
          <mxGeometry x="103" y="770" width="210" height="210" as="geometry" />
        </mxCell>
        <mxCell id="B93UWl0CvKrZpPo9y_b7-27" value="API ML" style="whiteSpace=wrap;html=1;aspect=fixed;" vertex="1" parent="1">
          <mxGeometry x="433" y="770" width="210" height="210" as="geometry" />
        </mxCell>
        <mxCell id="B93UWl0CvKrZpPo9y_b7-33" value="" style="shape=datastore;whiteSpace=wrap;html=1;" vertex="1" parent="1">
          <mxGeometry x="163" y="730" width="30" height="30" as="geometry" />
        </mxCell>
        <mxCell id="B93UWl0CvKrZpPo9y_b7-34" value="" style="shape=datastore;whiteSpace=wrap;html=1;" vertex="1" parent="1">
          <mxGeometry x="553" y="730" width="30" height="30" as="geometry" />
        </mxCell>
        <mxCell id="B93UWl0CvKrZpPo9y_b7-35" value="Endereço" style="text;html=1;align=center;verticalAlign=middle;whiteSpace=wrap;rounded=0;" vertex="1" parent="1">
          <mxGeometry x="93" y="730" width="60" height="30" as="geometry" />
        </mxCell>
        <mxCell id="B93UWl0CvKrZpPo9y_b7-36" value="Informações + Endereço com contexto" style="text;html=1;align=center;verticalAlign=middle;whiteSpace=wrap;rounded=0;" vertex="1" parent="1">
          <mxGeometry x="583" y="730" width="101" height="30" as="geometry" />
        </mxCell>
        <mxCell id="B93UWl0CvKrZpPo9y_b7-38" value="" style="shape=datastore;whiteSpace=wrap;html=1;" vertex="1" parent="1">
          <mxGeometry x="323.99" y="650" width="30" height="30" as="geometry" />
        </mxCell>
        <mxCell id="B93UWl0CvKrZpPo9y_b7-39" value="Endereço com contexto" style="text;html=1;align=center;verticalAlign=middle;whiteSpace=wrap;rounded=0;" vertex="1" parent="1">
          <mxGeometry x="234" y="650" width="80" height="30" as="geometry" />
        </mxCell>
        <mxCell id="B93UWl0CvKrZpPo9y_b7-44" value="" style="shape=datastore;whiteSpace=wrap;html=1;" vertex="1" parent="1">
          <mxGeometry x="393.99" y="650" width="30" height="30" as="geometry" />
        </mxCell>
        <mxCell id="B93UWl0CvKrZpPo9y_b7-45" value="Saída" style="text;html=1;align=center;verticalAlign=middle;whiteSpace=wrap;rounded=0;" vertex="1" parent="1">
          <mxGeometry x="423.99" y="650" width="70" height="30" as="geometry" />
        </mxCell>
        <mxCell id="B93UWl0CvKrZpPo9y_b7-46" value="Informações + Endereço" style="text;html=1;align=center;verticalAlign=middle;whiteSpace=wrap;rounded=0;" vertex="1" parent="1">
          <mxGeometry x="295" y="10" width="166" height="30" as="geometry" />
        </mxCell>
        <mxCell id="B93UWl0CvKrZpPo9y_b7-47" value="" style="shape=image;verticalLabelPosition=bottom;labelBackgroundColor=default;verticalAlign=top;aspect=fixed;imageAspect=0;image=https://cdn.worldvectorlogo.com/logos/fastapi.svg;" vertex="1" parent="1">
          <mxGeometry x="193" y="890" width="30" height="30" as="geometry" />
        </mxCell>
        <mxCell id="B93UWl0CvKrZpPo9y_b7-48" value="" style="shape=image;verticalLabelPosition=bottom;labelBackgroundColor=default;verticalAlign=top;aspect=fixed;imageAspect=0;image=https://cdn.worldvectorlogo.com/logos/fastapi.svg;" vertex="1" parent="1">
          <mxGeometry x="523" y="890" width="30" height="30" as="geometry" />
        </mxCell>
        <mxCell id="B93UWl0CvKrZpPo9y_b7-54" style="edgeStyle=orthogonalEdgeStyle;rounded=0;orthogonalLoop=1;jettySize=auto;html=1;entryX=0.5;entryY=1;entryDx=0;entryDy=0;" edge="1" parent="1" source="B93UWl0CvKrZpPo9y_b7-52" target="B93UWl0CvKrZpPo9y_b7-26">
          <mxGeometry relative="1" as="geometry" />
        </mxCell>
        <mxCell id="B93UWl0CvKrZpPo9y_b7-52" value="" style="shape=image;verticalLabelPosition=bottom;labelBackgroundColor=default;verticalAlign=top;aspect=fixed;imageAspect=0;image=https://logodownload.org/wp-content/uploads/2018/01/google-maps-logo-1-1.png;" vertex="1" parent="1">
          <mxGeometry x="194.05" y="1030" width="27.9" height="40" as="geometry" />
        </mxCell>
        <mxCell id="B93UWl0CvKrZpPo9y_b7-55" value="" style="shape=datastore;whiteSpace=wrap;html=1;" vertex="1" parent="1">
          <mxGeometry x="163" y="990" width="30" height="30" as="geometry" />
        </mxCell>
        <mxCell id="B93UWl0CvKrZpPo9y_b7-56" value="Endereço" style="text;html=1;align=center;verticalAlign=middle;whiteSpace=wrap;rounded=0;" vertex="1" parent="1">
          <mxGeometry x="93" y="990" width="60" height="30" as="geometry" />
        </mxCell>
        <mxCell id="B93UWl0CvKrZpPo9y_b7-57" value="" style="shape=datastore;whiteSpace=wrap;html=1;" vertex="1" parent="1">
          <mxGeometry x="223" y="990" width="30" height="30" as="geometry" />
        </mxCell>
        <mxCell id="B93UWl0CvKrZpPo9y_b7-59" value="Endereço com contexto" style="text;html=1;align=center;verticalAlign=middle;whiteSpace=wrap;rounded=0;" vertex="1" parent="1">
          <mxGeometry x="259" y="990" width="80" height="30" as="geometry" />
        </mxCell>
        <mxCell id="B93UWl0CvKrZpPo9y_b7-60" value="API GOOGLE" style="text;html=1;align=center;verticalAlign=middle;whiteSpace=wrap;rounded=0;" vertex="1" parent="1">
          <mxGeometry x="163" y="1070" width="90" height="50" as="geometry" />
        </mxCell>
      </root>
    </mxGraphModel>
  </diagram>
</mxfile>
